<svg xmlns="http://www.w3.org/2000/svg" version="1.1" xmlns:xlink="http://www.w3.org/1999/xlink" xmlns:svgjs="http://svgjs.dev/svgjs" width="2000" height="954" viewBox="0 0 2000 954"><g transform="matrix(1,0,0,1,-1.2121117450996053,0.43769099074523865)"><svg viewBox="0 0 396 189" data-background-color="#89939e" preserveAspectRatio="xMidYMid meet" height="954" width="2000" xmlns="http://www.w3.org/2000/svg" xmlns:xlink="http://www.w3.org/1999/xlink"><g id="tight-bounds" transform="matrix(1,0,0,1,0.23999812552972344,-0.08671115172029431)"><svg viewBox="0 0 395.52 189.17342304919373" height="189.17342304919373" width="395.52"><g><svg viewBox="0 0 589.2554994766435 281.8352545675542" height="189.17342304919373" width="395.52"><g transform="matrix(1,0,0,1,236.00798125442134,0)"><svg viewBox="0 0 353.24751822222225 281.8352545675542" height="281.8352545675542" width="353.24751822222225"><g id="textblocktransform"><svg viewBox="0 0 353.24751822222225 281.8352545675542" height="281.8352545675542" width="353.24751822222225" id="textblock"><g><svg viewBox="0 0 353.24751822222225 245.672304" height="245.672304" width="353.24751822222225"><g transform="matrix(1,0,0,1,0,0)"><svg width="353.24751822222225" viewBox="81.32999420166016 -32.04999923706055 153.35000610351562 103.60000610351562" height="245.672304" data-palette-color="#000000"><svg></svg><svg></svg><svg></svg><g class="wordmark-text-0" data-fill-palette-color="primary" id="text-0"><path xmlns="http://www.w3.org/2000/svg" d="M136.23-32.05l-0.2 22.05 0.1 10h-3.95l0.2-9.65-0.05-4.8-8.9-0.05-8.15 0.05-0.05 4.45 0.15 10h-3.95l0.15-9.65-0.15-22.4h4l-0.15 14.2 8.5 0.05 8.55-0.05-0.15-14.2zM149.18-24.9l-0.15 17.1 0.1 7.8h-3.7l0.15-7.5-0.15-17.4zM168.33-25.15c2.6 0 5.217 0.567 7.85 1.7v0l-1.25 3.6h-0.45c-1.233-0.8-2.367-1.36-3.4-1.68-1.033-0.313-2.15-0.47-3.35-0.47v0c-2.833 0-4.957 0.8-6.37 2.4-1.42 1.6-2.13 4.1-2.13 7.5v0c0 3.267 0.65 5.623 1.95 7.07 1.3 1.453 3.367 2.18 6.2 2.18v0c0.833 0 1.633-0.077 2.4-0.23 0.767-0.147 1.7-0.42 2.8-0.82v0-2.5l-0.05-3.55 3.45-0.25v9c-3.367 1-6.283 1.5-8.75 1.5v0c-3.933 0-6.907-1.06-8.92-3.18-2.02-2.113-3.03-5.137-3.03-9.07v0c0-4.267 1.143-7.533 3.43-9.8 2.28-2.267 5.487-3.4 9.62-3.4zM204.68-24.9l-0.15 17.1 0.1 7.8h-3.7l0.15-7.5-0.05-3.4-13.55 0.05-0.05 3.05 0.1 7.8h-3.7l0.15-7.5-0.15-17.4h3.75l-0.1 10.7 6.75 0.05 6.8-0.05-0.1-10.7z" fill="#000000" fill-rule="nonzero" stroke="none" stroke-width="1" stroke-linecap="butt" stroke-linejoin="miter" stroke-miterlimit="10" stroke-dasharray="" stroke-dashoffset="0" font-family="none" font-weight="none" font-size="none" text-anchor="none" style="mix-blend-mode: normal" data-fill-palette-color="primary" opacity="1"></path><path xmlns="http://www.w3.org/2000/svg" d="M91.13 3.45c3.133 0 5.55 0.807 7.25 2.42 1.7 1.62 2.55 3.947 2.55 6.98v0c0 3.567-1.057 6.367-3.17 8.4-2.12 2.033-5.047 3.05-8.78 3.05v0h-3.8v1.25l0.2 10h-4.05l0.25-9.65-0.25-22.4zM90.48 21.05c2.067-0.333 3.643-1.167 4.73-2.5 1.08-1.333 1.62-3.117 1.62-5.35v0c0-4.133-2.2-6.283-6.6-6.45v0l-4.85 0.15-0.15 14.05zM118.63 25.5c2.033 3.1 4.283 6.15 6.75 9.15v0l-0.05 0.5c-1.4 0.433-2.55 0.683-3.45 0.75v0l-0.65-0.4c-2.533-3.833-4.45-6.85-5.75-9.05v0l-4.7 0.05v1.25l0.1 7.8h-3.7l0.15-7.5-0.15-17.4 8.5-0.05c2.633 0 4.66 0.617 6.08 1.85 1.413 1.233 2.12 3.017 2.12 5.35v0c0 1.7-0.457 3.217-1.37 4.55-0.92 1.333-2.213 2.383-3.88 3.15zM110.88 13.65l-0.05 9.75 4.7 0.15c2.967-0.833 4.45-2.65 4.45-5.45v0c0-1.467-0.433-2.567-1.3-3.3-0.867-0.733-2.183-1.133-3.95-1.2v0zM141.28 10.35c3.633 0 6.423 1.067 8.37 3.2 1.953 2.133 2.93 5.15 2.93 9.05v0c0 4.233-1.04 7.507-3.12 9.82-2.087 2.32-5.063 3.48-8.93 3.48v0c-3.6 0-6.383-1.093-8.35-3.28-1.967-2.18-2.95-5.287-2.95-9.32v0c0-4.133 1.05-7.327 3.15-9.58 2.1-2.247 5.067-3.37 8.9-3.37zM140.93 13.5c-2.633 0-4.59 0.75-5.87 2.25-1.287 1.5-1.93 3.867-1.93 7.1v0c0 3.467 0.633 5.983 1.9 7.55 1.267 1.567 3.2 2.35 5.8 2.35v0c2.667 0 4.65-0.767 5.95-2.3 1.3-1.533 1.95-3.933 1.95-7.2v0c0-3.367-0.64-5.833-1.92-7.4-1.287-1.567-3.247-2.35-5.88-2.35zM172.88 10.65l0.2 0.3-0.25 3.15-4.65-0.35h-2.5l-0.15 14 0.15 7.8h-3.75l0.15-7.5-0.1-14.3h-2.5l-4.75 0.35-0.3-0.35 0.3-3.1zM187.73 32.55l6.65-0.2 0.3 0.3-0.35 2.9h-15.15l0.15-7.5-0.15-17.4h15.25l0.25 0.3-0.3 2.9-6.3-0.2-5.2 0.05-0.05 7.55 4.95 0.05 4.35-0.15 0.25 0.35-0.3 2.95-4.6-0.15-4.65 0.05-0.05 3.4 0.05 4.75zM204.68 10.65l-0.15 17.1 0.1 7.8h-3.7l0.15-7.5-0.15-17.4zM234.68 10.55l-0.15 17.55 0.05 7.45h-4l-13.1-19h-0.25l-0.05 10.7 0.1 8.3h-3.4l0.15-7.35-0.1-17.55h3.95l13.1 19h0.35l-0.1-18.85z" fill="#000000" fill-rule="nonzero" stroke="none" stroke-width="1" stroke-linecap="butt" stroke-linejoin="miter" stroke-miterlimit="10" stroke-dasharray="" stroke-dashoffset="0" font-family="none" font-weight="none" font-size="none" text-anchor="none" style="mix-blend-mode: normal" data-fill-palette-color="primary" opacity="1"></path><path xmlns="http://www.w3.org/2000/svg" d="M99.18 58.15c2.2 3.633 4.967 7.633 8.3 12v0l-0.05 0.5c-1.2 0.467-2.433 0.767-3.7 0.9v0l-0.55-0.35c-2.733-4.1-5.183-8.1-7.35-12v0h-5.85v1.9l0.2 10h-4.05l0.25-9.65-0.25-22.4 9.8-0.05c3.133 0 5.56 0.79 7.28 2.37 1.713 1.587 2.57 3.847 2.57 6.78v0c0 2.2-0.573 4.173-1.72 5.92-1.153 1.753-2.78 3.113-4.88 4.08zM90.18 42.45l-0.15 13.35 6 0.15c3.733-1.067 5.6-3.55 5.6-7.45v0c0-2.033-0.55-3.56-1.65-4.58-1.1-1.013-2.75-1.553-4.95-1.62v0zM122.28 68.1l6.65-0.2 0.3 0.3-0.35 2.9h-15.15l0.15-7.5-0.15-17.4h15.25l0.25 0.3-0.3 2.9-6.3-0.2-5.2 0.05-0.05 7.55 4.95 0.05 4.35-0.15 0.25 0.35-0.3 2.95-4.6-0.15-4.65 0.05-0.05 3.4 0.05 4.75zM144.38 45.95c2.767 0 5.167 0.583 7.2 1.75v0l-0.7 3.45-0.45 0.15c-0.833-0.7-1.8-1.25-2.9-1.65-1.1-0.4-2.283-0.6-3.55-0.6v0c-2.467 0-4.35 0.79-5.65 2.37-1.3 1.587-1.95 3.947-1.95 7.08v0c0 3.167 0.65 5.583 1.95 7.25 1.3 1.667 3.183 2.5 5.65 2.5v0c1.2 0 2.41-0.21 3.63-0.63 1.213-0.413 2.303-0.97 3.27-1.67v0l0.45 0.15-0.35 3.45c-2.267 1.233-4.65 1.85-7.15 1.85v0c-3.667 0-6.483-1.093-8.45-3.28-1.967-2.18-2.95-5.287-2.95-9.32v0c0-4.1 1.043-7.267 3.13-9.5 2.08-2.233 5.02-3.35 8.82-3.35zM161.48 46.2l-0.15 17.1 0.1 7.8h-3.7l0.15-7.5-0.15-17.4zM179.18 46.15c2.633 0 4.66 0.633 6.08 1.9 1.413 1.267 2.12 3.1 2.12 5.5v0c0 2.8-0.89 4.99-2.67 6.57-1.787 1.587-4.247 2.38-7.38 2.38v0h-3.05v0.8l0.1 7.8h-3.7l0.15-7.5-0.15-17.4zM178.53 59.6c3.3-0.567 4.95-2.483 4.95-5.75v0c0-1.567-0.44-2.733-1.32-3.5-0.887-0.767-2.213-1.183-3.98-1.25v0l-3.8 0.05-0.05 10.35zM202.53 68.1l6.65-0.2 0.3 0.3-0.35 2.9h-15.15l0.15-7.5-0.15-17.4h15.25l0.25 0.3-0.3 2.9-6.3-0.2-5.2 0.05-0.05 7.55 4.95 0.05 4.35-0.15 0.25 0.35-0.3 2.95-4.6-0.15-4.65 0.05-0.05 3.4 0.05 4.75zM223.08 45.95c2.033 0 4.067 0.4 6.1 1.2v0l-0.65 3.7-0.6 0.15c-0.933-0.733-1.817-1.277-2.65-1.63-0.833-0.347-1.7-0.52-2.6-0.52v0c-1.433 0-2.567 0.373-3.4 1.12-0.833 0.753-1.25 1.613-1.25 2.58v0c0 0.967 0.41 1.75 1.23 2.35 0.813 0.6 2.07 1.267 3.77 2v0c1.5 0.667 2.693 1.267 3.58 1.8 0.88 0.533 1.647 1.24 2.3 2.12 0.647 0.887 0.97 1.963 0.97 3.23v0c0 1.3-0.35 2.507-1.05 3.62-0.7 1.12-1.723 2.02-3.07 2.7-1.353 0.687-2.963 1.03-4.83 1.03v0c-1.167 0-2.39-0.143-3.67-0.43-1.287-0.28-2.48-0.703-3.58-1.27v0l0.45-3.95 0.5-0.2c0.933 0.933 2.027 1.657 3.28 2.17 1.247 0.52 2.403 0.78 3.47 0.78v0c1.4 0 2.55-0.377 3.45-1.13 0.9-0.747 1.35-1.653 1.35-2.72v0c0-1-0.41-1.8-1.23-2.4-0.813-0.6-2.087-1.3-3.82-2.1v0c-1.433-0.633-2.607-1.217-3.52-1.75-0.92-0.533-1.697-1.243-2.33-2.13-0.633-0.88-0.95-1.953-0.95-3.22v0c0-1.333 0.36-2.533 1.08-3.6 0.713-1.067 1.727-1.917 3.04-2.55 1.32-0.633 2.863-0.95 4.63-0.95z" fill="#000000" fill-rule="nonzero" stroke="none" stroke-width="1" stroke-linecap="butt" stroke-linejoin="miter" stroke-miterlimit="10" stroke-dasharray="" stroke-dashoffset="0" font-family="none" font-weight="none" font-size="none" text-anchor="none" style="mix-blend-mode: normal" data-fill-palette-color="primary" opacity="1"></path></g></svg></g></svg></g><g transform="matrix(1,0,0,1,0,263.373318993088)"><svg viewBox="0 0 353.24751822222225 18.46193557446625" height="18.46193557446625" width="353.24751822222225"><g transform="matrix(1,0,0,1,0,0)"><svg width="353.24751822222225" viewBox="3.25 -33 772.0499877929688 40.349998474121094" height="18.46193557446625" data-palette-color="#c8c8c8"><path d="M15.65 0L3.25 0 3.25-1 7.25-2.5 7.25-30.5 3.3-32 3.3-33 26.6-33 26.6-24.6 25.7-24.6 23.05-30.65 11.15-30.65 11.15-18.2 19.6-18.2 21.6-22.35 22.45-22.35 22.45-11.8 21.6-11.8 19.6-15.85 11.15-15.85 11.15-2.5 15.65-1 15.65 0ZM55.2 0L33.35 0 33.35-1 36.85-2.25 36.85-25.75 33.35-27 33.35-28 54-28 54-21 53.1-21 51-25.85 40.45-25.85 40.45-15.55 48.15-15.55 49.45-19 50.3-19 50.3-10.05 49.45-10.05 48.15-13.45 40.45-13.45 40.45-2.15 52.15-2.15 54.35-7.65 55.2-7.65 55.2 0ZM76.8 0.5L76.8 0.5Q73.55 0.5 71-0.6 68.45-1.7 66.98-4.13 65.5-6.55 65.5-10.45L65.5-10.45 65.5-25.75 61.95-27 61.95-28 72.65-28 72.65-27 69.1-25.75 69.1-10.9Q69.1-5.8 71.35-3.8 73.6-1.8 77.5-1.8L77.5-1.8Q79.7-1.8 81.53-2.68 83.35-3.55 84.43-5.33 85.5-7.1 85.5-9.85L85.5-9.85 85.5-25.85 81.25-27 81.25-28 91.4-28 91.4-27 87.9-25.8 87.9-10.45Q87.9-6.55 86.45-4.13 85-1.7 82.5-0.6 80 0.5 76.8 0.5ZM119.6 0L97.9 0 97.9-1 101.35-2.25 101.35-25.75 97.9-27 97.9-28 108.95-28 108.95-27 104.95-25.75 104.95-2.15 116.2-2.15 118.7-9.35 119.6-9.35 119.6 0ZM136.85 0L126.6 0 126.6-1 129.9-2.25 129.9-25.75 126.6-27 126.6-28 136.85-28 136.85-27 133.5-25.75 133.5-2.25 136.85-1 136.85 0ZM153.5 0L143.45 0 143.45-1 146.95-2.25 146.95-25.8 143.45-27 143.45-28 150-28 167.05-6.5 167.05-25.8 163.05-27 163.05-28 172.9-28 172.9-27 169.45-25.8 169.45 0.2 167.85 0.2 149.3-22.9 149.3-2.4 153.5-1 153.5 0ZM194 0.5L194 0.5Q189.8 0.5 186.53-1.28 183.25-3.05 181.38-6.13 179.5-9.2 179.5-13.2L179.5-13.2Q179.5-16.5 180.68-19.28 181.85-22.05 183.95-24.13 186.05-26.2 188.78-27.35 191.5-28.5 194.65-28.5L194.65-28.5Q198-28.5 200-27.93 202-27.35 203.8-26.45L203.8-26.45 204.05-19.6 203.2-19.6 200.9-24.25Q199.05-25.5 197.65-26.03 196.25-26.55 194.5-26.55L194.5-26.55Q191-26.55 188.38-25.03 185.75-23.5 184.28-20.9 182.8-18.3 182.8-15.1L182.8-15.1Q182.8-10.85 184.4-7.85 186-4.85 188.73-3.25 191.45-1.65 194.75-1.65L194.75-1.65Q196.3-1.65 197.75-1.88 199.2-2.1 200.8-2.75L200.8-2.75 200.8-10.05 196.8-11.4 196.8-12.35 207.3-12.35 207.3-11.4 204.15-10 204.15-2.85Q202.3-1.3 199.45-0.4 196.6 0.5 194 0.5ZM243.9 0L232.5 0 232.5-1 236.4-2.25 236.4-13.3 227.25-25.8 224.05-27 224.05-28 234.4-28 234.4-27 231.45-25.9 231.45-25.7 239.05-15.45 245.9-25.65 245.9-25.8 242.8-27 242.8-28 252-28 252-27 248.9-25.85 240-13.15 240-2.25 243.9-1 243.9 0ZM271.2 0.5L271.2 0.5Q267.2 0.5 264.05-1.38 260.9-3.25 259.08-6.53 257.25-9.8 257.25-14L257.25-14Q257.25-18.2 259.08-21.5 260.9-24.8 264.05-26.68 267.2-28.55 271.2-28.55L271.2-28.55Q275.25-28.55 278.43-26.68 281.6-24.8 283.43-21.5 285.25-18.2 285.25-14L285.25-14Q285.25-9.8 283.43-6.53 281.6-3.25 278.43-1.38 275.25 0.5 271.2 0.5ZM272.1-1.7L272.1-1.7Q276.45-1.7 279.03-4.7 281.6-7.7 281.6-12.75L281.6-12.75Q281.6-16.85 280.18-19.93 278.75-23 276.25-24.7 273.75-26.4 270.5-26.4L270.5-26.4Q266.15-26.4 263.5-23.4 260.85-20.4 260.85-15.4L260.85-15.4Q260.85-11.3 262.3-8.2 263.75-5.1 266.3-3.4 268.85-1.7 272.1-1.7ZM306.85 0.5L306.85 0.5Q303.6 0.5 301.05-0.6 298.5-1.7 297.03-4.13 295.55-6.55 295.55-10.45L295.55-10.45 295.55-25.75 292-27 292-28 302.7-28 302.7-27 299.15-25.75 299.15-10.9Q299.15-5.8 301.4-3.8 303.65-1.8 307.55-1.8L307.55-1.8Q309.75-1.8 311.58-2.68 313.4-3.55 314.48-5.33 315.55-7.1 315.55-9.85L315.55-9.85 315.55-25.85 311.3-27 311.3-28 321.45-28 321.45-27 317.95-25.8 317.95-10.45Q317.95-6.55 316.5-4.13 315.05-1.7 312.55-0.6 310.05 0.5 306.85 0.5ZM338.35 0L327.95 0 327.95-1 331.5-2.25 331.5-25.75 327.95-27 327.95-28 338.05-28Q342.7-28 345.35-26.1 348-24.2 348-21L348-21Q348-18.45 346.43-16.7 344.85-14.95 342.15-14L342.15-14 350.1-2.1 353.2-1 353.2 0 346.95 0 338.6-13 335.05-13 335.05-2.3 338.35-1 338.35 0ZM337.8-25.85L337.8-25.85 335.05-25.85 335.05-15.15 338.05-15.15Q340.85-15.15 342.5-16.6 344.15-18.05 344.15-20.45L344.15-20.45Q344.15-23.05 342.5-24.45 340.85-25.85 337.8-25.85ZM380 0L368.75 0 368.75-1 372.3-2.25 372.3-25.75 368.8-27 368.8-28 389.4-28 389.4-21 388.45-21 386.45-25.8 375.9-25.8 375.9-15.55 383.6-15.55 384.85-19 385.7-19 385.7-10.05 384.85-10.05 383.6-13.45 375.9-13.45 375.9-2.25 380-1 380 0ZM406.65 0L396.4 0 396.4-1 399.7-2.25 399.7-25.75 396.4-27 396.4-28 406.65-28 406.65-27 403.3-25.75 403.3-2.25 406.65-1 406.65 0ZM431.45 0L419 0 419-1 423.4-2.25 423.4-25.85 415.5-25.85 413.3-19.9 412.4-19.9 412.4-28 438.1-28 438.1-19.9 437.2-19.9 434.95-25.85 427-25.85 427-2.25 431.45-1 431.45 0ZM453.5 0L443.45 0 443.45-1 446.95-2.25 446.95-25.8 443.45-27 443.45-28 450-28 467.05-6.5 467.05-25.8 463.05-27 463.05-28 472.9-28 472.9-27 469.45-25.8 469.45 0.2 467.85 0.2 449.3-22.9 449.3-2.4 453.5-1 453.5 0ZM501.1 0L479.25 0 479.25-1 482.75-2.25 482.75-25.75 479.25-27 479.25-28 499.9-28 499.9-21 499-21 496.9-25.85 486.35-25.85 486.35-15.55 494.05-15.55 495.35-19 496.2-19 496.2-10.05 495.35-10.05 494.05-13.45 486.35-13.45 486.35-2.15 498.05-2.15 500.25-7.65 501.1-7.65 501.1 0ZM516.45 0.5L516.45 0.5Q513.8 0.5 511.93 0 510.05-0.5 508.05-1.5L508.05-1.5 507.6-8.2 508.5-8.2 510.9-3.3Q512.35-2.25 513.8-1.88 515.25-1.5 516.75-1.5L516.75-1.5Q522.65-1.5 522.65-6.6L522.65-6.6Q522.65-8.45 521.68-9.5 520.7-10.55 518.88-11.43 517.05-12.3 514.5-13.5L514.5-13.5Q511.45-14.95 510.05-16.48 508.65-18 508.65-20.8L508.65-20.8Q508.65-22.8 509.85-24.55 511.05-26.3 513.02-27.4 515-28.5 517.3-28.5L517.3-28.5Q519.3-28.5 520.95-28 522.6-27.5 524.3-26.65L524.3-26.65 524.7-20.2 523.8-20.2 521.85-24.75Q520.75-25.65 519.7-26.08 518.65-26.5 517.3-26.5L517.3-26.5Q514.7-26.5 513.27-25.18 511.85-23.85 511.85-21.8L511.85-21.8Q511.85-20.35 512.52-19.38 513.2-18.4 514.58-17.57 515.95-16.75 518.1-15.7L518.1-15.7Q520.85-14.4 522.55-13.28 524.25-12.15 525.05-10.75 525.85-9.35 525.85-7.2L525.85-7.2Q525.85-4.95 524.58-3.23 523.3-1.5 521.18-0.5 519.05 0.5 516.45 0.5ZM540.45 0.5L540.45 0.5Q537.8 0.5 535.93 0 534.05-0.5 532.05-1.5L532.05-1.5 531.6-8.2 532.5-8.2 534.9-3.3Q536.35-2.25 537.8-1.88 539.25-1.5 540.75-1.5L540.75-1.5Q546.65-1.5 546.65-6.6L546.65-6.6Q546.65-8.45 545.68-9.5 544.7-10.55 542.88-11.43 541.05-12.3 538.5-13.5L538.5-13.5Q535.45-14.95 534.05-16.48 532.65-18 532.65-20.8L532.65-20.8Q532.65-22.8 533.85-24.55 535.05-26.3 537.02-27.4 539-28.5 541.3-28.5L541.3-28.5Q543.3-28.5 544.95-28 546.6-27.5 548.3-26.65L548.3-26.65 548.7-20.2 547.8-20.2 545.85-24.75Q544.75-25.65 543.7-26.08 542.65-26.5 541.3-26.5L541.3-26.5Q538.7-26.5 537.27-25.18 535.85-23.85 535.85-21.8L535.85-21.8Q535.85-20.35 536.52-19.38 537.2-18.4 538.58-17.57 539.95-16.75 542.1-15.7L542.1-15.7Q544.85-14.4 546.55-13.28 548.25-12.15 549.05-10.75 549.85-9.35 549.85-7.2L549.85-7.2Q549.85-4.95 548.58-3.23 547.3-1.5 545.18-0.5 543.05 0.5 540.45 0.5ZM567.25 7.35L567.25 7.35Q566.7 7.35 566.23 7.08 565.75 6.8 565.75 6.05L565.75 6.05Q565.75 6 565.88 5.45 566 4.9 566.2 3.85L566.2 3.85 566.45 3.85Q567.15 4.05 567.58 4.15 568 4.25 568.55 4.25L568.55 4.25Q569.5 4.25 570.18 3.78 570.85 3.3 571.2 1.85 571.55 0.4 571.55-2.4L571.55-2.4 571.55-25.75 568.15-27.05 568.15-28 578.6-28 578.6-27.05 575.15-25.75 575.15-9.2Q575.15-4 574.27-0.65 573.4 2.7 571.85 4.4L571.85 4.4Q570.2 6.2 569.35 6.78 568.5 7.35 567.25 7.35ZM599.55 0.5L599.55 0.5Q595.55 0.5 592.4-1.38 589.25-3.25 587.43-6.53 585.6-9.8 585.6-14L585.6-14Q585.6-18.2 587.43-21.5 589.25-24.8 592.4-26.68 595.55-28.55 599.55-28.55L599.55-28.55Q603.6-28.55 606.77-26.68 609.95-24.8 611.77-21.5 613.6-18.2 613.6-14L613.6-14Q613.6-9.8 611.77-6.53 609.95-3.25 606.77-1.38 603.6 0.5 599.55 0.5ZM600.45-1.7L600.45-1.7Q604.8-1.7 607.38-4.7 609.95-7.7 609.95-12.75L609.95-12.75Q609.95-16.85 608.52-19.93 607.1-23 604.6-24.7 602.1-26.4 598.85-26.4L598.85-26.4Q594.5-26.4 591.85-23.4 589.2-20.4 589.2-15.4L589.2-15.4Q589.2-11.3 590.65-8.2 592.1-5.1 594.65-3.4 597.2-1.7 600.45-1.7ZM635.2 0.5L635.2 0.5Q631.95 0.5 629.4-0.6 626.85-1.7 625.38-4.13 623.9-6.55 623.9-10.45L623.9-10.45 623.9-25.75 620.35-27 620.35-28 631.05-28 631.05-27 627.5-25.75 627.5-10.9Q627.5-5.8 629.75-3.8 632-1.8 635.9-1.8L635.9-1.8Q638.1-1.8 639.93-2.68 641.75-3.55 642.83-5.33 643.9-7.1 643.9-9.85L643.9-9.85 643.9-25.85 639.65-27 639.65-28 649.8-28 649.8-27 646.3-25.8 646.3-10.45Q646.3-6.55 644.85-4.13 643.4-1.7 640.9-0.6 638.4 0.5 635.2 0.5ZM666.7 0L656.3 0 656.3-1 659.85-2.25 659.85-25.75 656.3-27 656.3-28 666.4-28Q671.05-28 673.7-26.1 676.35-24.2 676.35-21L676.35-21Q676.35-18.45 674.78-16.7 673.2-14.95 670.5-14L670.5-14 678.45-2.1 681.55-1 681.55 0 675.3 0 666.95-13 663.4-13 663.4-2.3 666.7-1 666.7 0ZM666.15-25.85L666.15-25.85 663.4-25.85 663.4-15.15 666.4-15.15Q669.2-15.15 670.85-16.6 672.5-18.05 672.5-20.45L672.5-20.45Q672.5-23.05 670.85-24.45 669.2-25.85 666.15-25.85ZM694.5 0L684.45 0 684.45-1 687.95-2.25 687.95-25.8 684.45-27 684.45-28 691-28 708.05-6.5 708.05-25.8 704.05-27 704.05-28 713.9-28 713.9-27 710.45-25.8 710.45 0.2 708.85 0.2 690.3-22.9 690.3-2.4 694.5-1 694.5 0ZM742.1 0L720.25 0 720.25-1 723.75-2.25 723.75-25.75 720.25-27 720.25-28 740.9-28 740.9-21 740-21 737.9-25.85 727.35-25.85 727.35-15.55 735.05-15.55 736.35-19 737.2-19 737.2-10.05 736.35-10.05 735.05-13.45 727.35-13.45 727.35-2.15 739.05-2.15 741.25-7.65 742.1-7.65 742.1 0ZM767.2 0L755.8 0 755.8-1 759.7-2.25 759.7-13.3 750.55-25.8 747.35-27 747.35-28 757.7-28 757.7-27 754.75-25.9 754.75-25.7 762.35-15.45 769.2-25.65 769.2-25.8 766.1-27 766.1-28 775.3-28 775.3-27 772.2-25.85 763.3-13.15 763.3-2.25 767.2-1 767.2 0Z" opacity="1" transform="matrix(1,0,0,1,0,0)" fill="#000000" class="slogan-text-1" data-fill-palette-color="secondary" id="text-1"></path></svg></g></svg></g></svg></g></svg></g><g transform="matrix(1,0,0,1,0,31.764144153110465)"><svg viewBox="0 0 218.30696626133334 218.3069662613333" height="218.3069662613333" width="218.30696626133334"><g><svg></svg></g><g id="icon-0"><svg viewBox="0 0 218.30696626133334 218.3069662613333" height="218.3069662613333" width="218.30696626133334"><g><path xmlns="http://www.w3.org/2000/svg" d="M65.492 218.307c-36.17 0-65.492-29.322-65.492-65.492v-87.323c0-36.17 29.322-65.492 65.492-65.492h87.323c36.17 0 65.492 29.322 65.492 65.492v87.323c0 36.17-29.322 65.492-65.492 65.492z" fill="#000000" fill-rule="nonzero" stroke="none" stroke-width="1" stroke-linecap="butt" stroke-linejoin="miter" stroke-miterlimit="10" stroke-dasharray="" stroke-dashoffset="0" font-family="none" font-weight="none" font-size="none" text-anchor="none" style="mix-blend-mode: normal" data-fill-palette-color="accent"></path></g><g transform="matrix(1,0,0,1,43.66139325226668,73.96209323668214)"><svg viewBox="0 0 130.9841797568 70.38277978796901" height="70.38277978796901" width="130.9841797568"><g><svg xmlns="http://www.w3.org/2000/svg" xmlns:xlink="http://www.w3.org/1999/xlink" version="1.1" x="0" y="0" viewBox="1.4169998168945312 8.163999557495117 29.166000366210938 15.672000885009766" enable-background="new 0 0 32 32" xml:space="preserve" height="70.38277978796901" width="130.9841797568" class="icon-s-0" data-fill-palette-color="quaternary" id="s-0"><path d="M23.184 8.164c-1.294 0-2.366 2.826-2.573 6.531h-9.22c-0.208-3.705-1.279-6.531-2.574-6.531H7.538C8.809 9.513 9.47 12.768 9.47 16c0 3.231-0.661 6.486-1.932 7.836h1.279c1.294 0 2.366-2.826 2.573-6.53h9.221c0.208 3.704 1.279 6.53 2.573 6.53 1.442 0 2.611-3.509 2.611-7.836C25.795 11.672 24.626 8.164 23.184 8.164zM28.407 9.47h-1.17c-0.413-0.824-0.909-1.306-1.442-1.306h-1.279c1.271 1.349 1.933 4.604 1.933 7.836 0 3.231-0.661 6.486-1.933 7.836h1.279c0.533 0 1.029-0.482 1.442-1.306h1.17c1.201 0 2.176-2.924 2.176-6.53S29.608 9.47 28.407 9.47zM3.593 9.47c-1.201 0-2.176 2.924-2.176 6.53s0.975 6.53 2.176 6.53c1.203 0 2.177-2.924 2.177-6.53S4.795 9.47 3.593 9.47zM3.593 17.306c-0.361 0-0.653-0.584-0.653-1.306 0-0.721 0.292-1.306 0.653-1.306S4.246 15.279 4.246 16C4.246 16.722 3.954 17.306 3.593 17.306zM6.205 8.164c-0.517 0-0.998 0.459-1.402 1.238 1.104 1.179 1.62 3.962 1.62 6.598 0 2.637-0.515 5.419-1.62 6.598 0.404 0.778 0.885 1.238 1.402 1.238 1.442 0 2.612-3.509 2.612-7.836C8.817 11.672 7.647 8.164 6.205 8.164z" fill="#ffffff" data-fill-palette-color="quaternary"></path></svg></g></svg></g></svg></g></svg></g></svg></g><defs></defs></svg><rect width="395.52" height="189.17342304919373" fill="none" stroke="none" visibility="hidden"></rect></g></svg></g></svg>